<svg width="134" height="40" viewBox="0 0 134 40" fill="none" xmlns="http://www.w3.org/2000/svg">
<path fill-rule="evenodd" clip-rule="evenodd" d="M84.1041 12.227L81.9252 8.57298L78.0578 10.4L75.8789 6.73514L72.0114 8.57298L69.8435 4.89731L65.976 6.73514L63.7971 3.07028L59.9296 4.90812L57.7617 1.23244L53.8833 3.07028L45.6799 29.5784L55.6482 32.6054C56.0237 31.4106 56.8174 30.3885 57.8861 29.7238C58.9547 29.0591 60.2277 28.7957 61.475 28.9811C62.7223 29.1665 63.8616 29.7885 64.6871 30.7347C65.5126 31.681 65.9697 32.889 65.976 34.1405V34.2487C65.9978 34.7243 65.9433 35.2 65.8017 35.6757L75.9334 38.7568L84.1041 12.227Z" fill="#D61920"/>
<path fill-rule="evenodd" clip-rule="evenodd" d="M54.2319 27.3946C53.9799 27.3532 53.7512 27.2236 53.5873 27.0292C53.4234 26.8348 53.3352 26.5886 53.3386 26.3351V13.3622C53.3371 13.2198 53.3643 13.0786 53.4186 12.9468C53.4728 12.8149 53.553 12.6952 53.6544 12.5945C53.7559 12.4938 53.8766 12.4143 54.0094 12.3604C54.1422 12.3066 54.2846 12.2796 54.428 12.2811H63.8734C64.4299 12.2797 64.9813 12.387 65.496 12.5971C66.0107 12.8071 66.4787 13.1157 66.8732 13.5052C67.2678 13.8947 67.5811 14.3575 67.7954 14.8672C68.0097 15.3768 68.1207 15.9234 68.1222 16.4757V26.3351C68.1219 26.4944 68.0862 26.6515 68.0176 26.7955C67.949 26.9394 67.8492 27.0665 67.7253 27.1677C67.6015 27.2689 67.4566 27.3418 67.3011 27.381C67.1456 27.4202 66.9833 27.4248 66.8258 27.3946C66.5758 27.3509 66.3496 27.2203 66.1879 27.0261C66.0262 26.832 65.9395 26.587 65.9433 26.3351V16.4865C65.9433 15.9417 65.7252 15.4193 65.337 15.0341C64.9489 14.6488 64.4224 14.4324 63.8734 14.4324H61.8144V26.3243C61.8152 26.4692 61.7867 26.6127 61.7306 26.7464C61.6744 26.8802 61.5918 27.0013 61.4875 27.1027C61.3635 27.2248 61.2115 27.3151 61.0445 27.3659C60.8775 27.4168 60.7005 27.4266 60.5288 27.3946C60.2769 27.3532 60.0481 27.2236 59.8842 27.0292C59.7203 26.8348 59.6321 26.5886 59.6355 26.3351V14.4324H55.5175V26.3243C55.5185 26.4834 55.4841 26.6406 55.4169 26.785C55.3496 26.9293 55.251 27.0572 55.1283 27.1594C55.0055 27.2616 54.8615 27.3357 54.7066 27.3763C54.5516 27.417 54.3896 27.4232 54.2319 27.3946ZM69.9415 33.0487C69.6876 33.007 69.4575 32.8758 69.2933 32.6792C69.1292 32.4825 69.0421 32.2337 69.0482 31.9784C69.0494 31.6948 69.1629 31.423 69.3641 31.2216C69.5653 31.0179 69.8394 30.9014 70.1267 30.8973C71.0527 30.8973 71.848 30.3135 72.1095 29.4378L73.2316 25.7297L69.5602 13.5459C69.5164 13.4097 69.5003 13.2662 69.5128 13.1237C69.5254 12.9812 69.5662 12.8426 69.6331 12.7159C69.7 12.5892 69.7915 12.4769 69.9024 12.3856C70.0134 12.2942 70.1414 12.2257 70.2792 12.1838C70.5537 12.1083 70.8468 12.1402 71.0982 12.273C71.3496 12.4058 71.54 12.6293 71.6301 12.8973L74.3537 21.9784L77.1209 12.8973C77.2516 12.4 77.8072 12.0649 78.3737 12.173L78.45 12.1838C79.0383 12.3676 79.3651 12.9838 79.1908 13.5568L75.4105 26.0541L74.2121 30.0541C73.9432 30.9149 73.4099 31.6708 72.6869 32.2162C71.9514 32.7636 71.0569 33.0595 70.1376 33.0595C70.0721 33.062 70.0064 33.0583 69.9415 33.0487Z" fill="#FEFEFE"/>
<path fill-rule="evenodd" clip-rule="evenodd" d="M3.35548 25.0271H5.49077C6.05997 25.0271 6.60586 24.8027 7.00834 24.4033C7.41083 24.0039 7.63694 23.4622 7.63694 22.8973V16.6595C7.63838 16.3798 7.58429 16.1026 7.47775 15.8436C7.37122 15.5847 7.21433 15.3491 7.01605 15.1504C6.81777 14.9516 6.58198 14.7935 6.32214 14.6852C6.0623 14.5768 5.7835 14.5204 5.50166 14.5189H3.35548V25.0054V25.0271ZM2.01548 27.2541C1.75389 27.2102 1.51675 27.075 1.34691 26.8727C1.17708 26.6705 1.08576 26.4146 1.08946 26.1514V6.7784C1.08754 6.63018 1.11546 6.48307 1.17158 6.3457C1.2277 6.20832 1.3109 6.08345 1.41629 5.9784C1.54381 5.84701 1.7019 5.74872 1.87666 5.69217C2.05143 5.63562 2.23752 5.62254 2.41857 5.65408C2.96329 5.76219 3.35548 6.21624 3.35548 6.76759V12.2811H5.49077C6.06967 12.2797 6.64317 12.3916 7.17842 12.6105C7.71367 12.8293 8.20015 13.1508 8.61 13.5565C9.01985 13.9622 9.34503 14.4442 9.56689 14.9748C9.78876 15.5054 9.90296 16.0742 9.90296 16.6487V22.8865C9.90008 24.044 9.43545 25.1532 8.61067 25.9717C7.78589 26.7902 6.66807 27.2512 5.50166 27.2541H2.22247C2.14966 27.2584 2.0766 27.2547 2.00459 27.2433L2.01548 27.2541Z" fill="#333545"/>
<path fill-rule="evenodd" clip-rule="evenodd" d="M17.5835 14.4324C17.4611 14.4112 17.3372 14.4004 17.2131 14.4C16.9304 14.3971 16.65 14.4502 16.3883 14.5562C16.1266 14.6622 15.8889 14.819 15.689 15.0173C15.4891 15.2157 15.3311 15.4516 15.2243 15.7113C15.1175 15.971 15.064 16.2492 15.0669 16.5297V23.027C15.0654 23.3071 15.12 23.5847 15.2273 23.8437C15.3347 24.1028 15.4927 24.3381 15.6923 24.5362C15.8918 24.7342 16.129 24.891 16.39 24.9976C16.6511 25.1041 16.9308 25.1582 17.2131 25.1568C17.7823 25.1568 18.3282 24.9324 18.7306 24.533C19.1331 24.1336 19.3592 23.5919 19.3592 23.027V16.5405C19.3592 15.4919 18.6075 14.6162 17.5835 14.4324ZM16.4396 27.3513C15.4181 27.173 14.4929 26.6425 13.8272 25.8533C13.1615 25.0641 12.798 24.067 12.8009 23.0378V16.5405C12.7989 15.9655 12.9126 15.3959 13.1352 14.865C13.3578 14.3341 13.6849 13.8526 14.0973 13.4486C14.5063 13.0428 14.9922 12.7212 15.5269 12.5023C16.0616 12.2834 16.6346 12.1715 17.2131 12.173C18.3804 12.173 19.4998 12.6331 20.3253 13.4522C21.1507 14.2713 21.6144 15.3822 21.6144 16.5405V23.0378C21.6144 24.2054 21.1568 25.3081 20.3179 26.1405C19.9105 26.5456 19.4265 26.8667 18.8937 27.0857C18.3609 27.3046 17.7897 27.4169 17.2131 27.4162C16.9538 27.4173 16.695 27.3956 16.4396 27.3513ZM29.2948 14.4432C29.1725 14.422 29.0486 14.4111 28.9244 14.4108C28.6418 14.4079 28.3614 14.461 28.0997 14.567C27.838 14.673 27.6002 14.8298 27.4004 15.0282C27.2005 15.2265 27.0425 15.4624 26.9357 15.7221C26.8289 15.9818 26.7753 16.2601 26.7783 16.5405V23.0378C26.7768 23.3179 26.8313 23.5955 26.9387 23.8545C27.046 24.1136 27.2041 24.3489 27.4036 24.547C27.6032 24.745 27.8404 24.9018 28.1014 25.0084C28.3625 25.1149 28.6422 25.169 28.9244 25.1676C29.2067 25.169 29.4864 25.1149 29.7475 25.0084C30.0085 24.9018 30.2457 24.745 30.4452 24.547C30.6448 24.3489 30.8028 24.1136 30.9102 23.8545C31.0175 23.5955 31.0721 23.3179 31.0706 23.0378V16.5405C31.0706 15.5027 30.3189 14.627 29.2948 14.4432ZM28.1509 27.3513C27.1315 27.1708 26.2089 26.6392 25.5453 25.8503C24.8818 25.0613 24.5198 24.0655 24.5231 23.0378V16.5405C24.5249 15.9034 24.6667 15.2743 24.9387 14.6972C25.2107 14.1201 25.6064 13.6088 26.0981 13.1991C26.5898 12.7894 27.1657 12.4911 27.7856 12.3251C28.4055 12.1591 29.0544 12.1293 29.687 12.2378C30.7086 12.4136 31.6349 12.9415 32.3026 13.7287C32.9703 14.5159 33.3365 15.5117 33.3366 16.5405V23.0378C33.338 23.6153 33.223 24.1873 32.9985 24.7201C32.774 25.2529 32.4445 25.7359 32.0293 26.1405C31.6219 26.5456 31.1379 26.8667 30.6051 27.0857C30.0723 27.3046 29.5011 27.4169 28.9244 27.4162C28.663 27.4162 28.4015 27.3946 28.1509 27.3513ZM37.1605 27.3946C36.899 27.3507 36.6618 27.2155 36.492 27.0132C36.3221 26.811 36.2308 26.5551 36.2345 26.2919V6.77838C36.2345 6.47568 36.3435 6.18379 36.5614 5.97838C36.6899 5.85249 36.8471 5.75923 37.0197 5.70654C37.1923 5.65384 37.3751 5.64325 37.5527 5.67568C38.0975 5.76216 38.5005 6.22703 38.5005 6.77838V18.3243L43.708 12.5297C43.9695 12.2487 44.3617 12.1189 44.7539 12.1838C44.9516 12.2166 45.1369 12.3014 45.2904 12.4294C45.4439 12.5574 45.5601 12.7238 45.6268 12.9114C45.6936 13.099 45.7084 13.301 45.6698 13.4962C45.6313 13.6915 45.5407 13.8729 45.4075 14.0216L41.4747 18.3784L45.5383 25.7622C45.6114 25.8867 45.6588 26.0245 45.6775 26.1675C45.6962 26.3104 45.6859 26.4556 45.6472 26.5946C45.6051 26.7378 45.5341 26.871 45.4386 26.9863C45.3431 27.1015 45.2251 27.1962 45.0916 27.2649C44.8609 27.3965 44.5907 27.4424 44.329 27.3946C44.1662 27.3673 44.0115 27.3047 43.876 27.2113C43.7404 27.1178 43.6272 26.9959 43.5446 26.8541L39.8841 20.173L38.4896 21.6973V26.2919C38.4896 26.5901 38.3703 26.8761 38.1578 27.0869C37.9453 27.2978 37.6571 27.4162 37.3566 27.4162C37.2804 27.4162 37.215 27.4162 37.1388 27.3946H37.1605ZM87.0674 27.3838C86.4547 27.282 85.8727 27.0457 85.3638 26.6922C84.8549 26.3387 84.432 25.8769 84.1259 25.3405C83.9762 25.0777 83.9371 24.7669 84.017 24.4757C84.1041 24.1946 84.2893 23.9568 84.5399 23.8054C84.7725 23.6793 85.0421 23.6372 85.3025 23.6865C85.6293 23.7405 85.9235 23.9351 86.0869 24.227C86.381 24.7243 86.8495 25.0486 87.4269 25.1459C87.7246 25.1973 88.0301 25.1811 88.3206 25.0988C88.6112 25.0164 88.8792 24.8699 89.1046 24.6703C89.5404 24.2703 89.7583 23.6973 89.7038 23.1351C89.6917 22.847 89.6114 22.5657 89.4695 22.314C89.3275 22.0624 89.1279 21.8474 88.8867 21.6865L85.8363 19.5351C85.3393 19.1888 84.9254 18.738 84.6241 18.2148C84.3228 17.6916 84.1416 17.1088 84.0932 16.5081C84.0538 15.902 84.154 15.295 84.3862 14.7331C84.6183 14.1711 84.9764 13.669 85.4332 13.2649C85.8789 12.8537 86.4113 12.5463 86.9917 12.3649C87.5721 12.1835 88.186 12.1327 88.7887 12.2162C90.0742 12.4324 91.12 13.1676 91.7192 14.2054C91.8636 14.4648 91.9011 14.7695 91.824 15.0558C91.7468 15.342 91.5609 15.5874 91.3053 15.7405C91.0746 15.8721 90.8043 15.9181 90.5426 15.8703C90.3799 15.843 90.2252 15.7804 90.0896 15.6869C89.954 15.5935 89.8409 15.4715 89.7583 15.3297C89.6216 15.1004 89.4354 14.9039 89.2132 14.7543C88.9909 14.6048 88.738 14.5059 88.4727 14.4649C88.2013 14.4161 87.9221 14.4308 87.6574 14.5077C87.3926 14.5847 87.1496 14.7217 86.9475 14.9081C86.7502 15.0929 86.5963 15.3184 86.4965 15.5687C86.3967 15.819 86.3536 16.0881 86.3701 16.3568C86.3919 16.8865 86.697 17.4054 87.1545 17.7081L90.2049 19.8162C90.7227 20.176 91.1509 20.6484 91.4568 21.1973C91.7626 21.7463 91.9381 22.3573 91.9698 22.9838C92.0203 23.6073 91.9235 24.234 91.6871 24.8139C91.4507 25.3938 91.0812 25.911 90.608 26.3243C90.1478 26.7487 89.5981 27.0659 88.9988 27.2529C88.3995 27.4399 87.7657 27.492 87.1436 27.4054L87.0565 27.3838H87.0674ZM95.8155 27.4162C95.5538 27.3706 95.3166 27.2352 95.1454 27.0336C94.9741 26.832 94.8797 26.5772 94.8786 26.3135V6.8C94.8771 6.65195 94.9054 6.5051 94.9619 6.36804C95.0183 6.23098 95.1017 6.10646 95.2072 6.00177C95.3127 5.89707 95.4382 5.81431 95.5763 5.75832C95.7144 5.70233 95.8624 5.67423 96.0116 5.67568L96.2295 5.68649C96.7742 5.7946 97.1446 6.23784 97.1446 6.8V12.3135H99.2908C99.8692 12.3121 100.442 12.4241 100.977 12.6431C101.511 12.8621 101.997 13.1837 102.406 13.5896C102.815 13.9954 103.139 14.4775 103.36 15.008C103.581 15.5385 103.694 16.1071 103.692 16.6811V26.3027C103.693 26.4659 103.658 26.6274 103.589 26.7756C103.52 26.9238 103.419 27.0552 103.293 27.1604C103.167 27.2656 103.02 27.3421 102.861 27.3844C102.702 27.4268 102.536 27.4339 102.374 27.4054C101.829 27.3081 101.437 26.8432 101.437 26.2919V16.6703C101.437 16.3911 101.381 16.1147 101.273 15.8569C101.165 15.5991 101.007 15.365 100.808 15.1681C100.608 14.9712 100.372 14.8154 100.111 14.7095C99.8509 14.6037 99.5721 14.5499 99.2908 14.5514H97.1446V26.3027C97.1458 26.467 97.1104 26.6296 97.0408 26.7787C96.9713 26.9279 96.8693 27.0599 96.7423 27.1653C96.6152 27.2707 96.4662 27.3469 96.306 27.3884C96.1458 27.4299 95.9783 27.4357 95.8155 27.4054V27.4162ZM111.373 14.4541C111.064 14.3984 110.747 14.411 110.443 14.4909C110.14 14.5708 109.858 14.7161 109.618 14.9163C109.378 15.1165 109.185 15.3669 109.053 15.6495C108.921 15.9321 108.854 16.24 108.856 16.5514V23.0486C108.855 23.3278 108.909 23.6045 109.015 23.8628C109.122 24.1212 109.279 24.356 109.478 24.5539C109.676 24.7519 109.912 24.9089 110.172 25.0161C110.431 25.1232 110.71 25.1784 110.991 25.1784C111.558 25.1784 112.102 24.9622 112.506 24.5622C112.707 24.3645 112.867 24.1287 112.976 23.8688C113.084 23.6089 113.139 23.33 113.137 23.0486V16.5405C113.137 15.5027 112.397 14.6162 111.362 14.4432L111.373 14.4541ZM110.218 27.3405C109.199 27.1623 108.277 26.6329 107.613 25.8457C106.949 25.0586 106.587 24.0642 106.59 23.0378V16.5405C106.59 15.9025 106.731 15.2722 107.002 14.6937C107.273 14.1153 107.669 13.6027 108.161 13.1918C108.653 12.7809 109.229 12.4816 109.85 12.315C110.47 12.1483 111.12 12.1183 111.754 12.227C112.777 12.4031 113.705 12.9326 114.373 13.722C115.041 14.5114 115.406 15.5098 115.403 16.5405V23.0378C115.404 23.6136 115.289 24.1837 115.064 24.7146C114.84 25.2456 114.511 25.7267 114.096 26.1297C113.596 26.6277 112.983 26.9979 112.307 27.2088C111.632 27.4197 110.915 27.4649 110.218 27.3405Z" fill="#333545"/>
<path fill-rule="evenodd" clip-rule="evenodd" d="M132.802 13.5568C132.839 13.4194 132.848 13.2762 132.83 13.1352C132.811 12.9942 132.764 12.8583 132.693 12.7352C132.61 12.6039 132.502 12.4904 132.375 12.4013C132.248 12.3122 132.104 12.2492 131.952 12.2162C131.671 12.1635 131.38 12.2192 131.14 12.3719C130.899 12.5246 130.725 12.7628 130.655 13.0379C130.655 13.0919 129.435 17.9676 128.477 21.6757L128.455 21.7514L128.433 21.6757L126.254 13.0487C126.212 12.8381 126.106 12.6453 125.95 12.4965C125.794 12.3476 125.596 12.2498 125.383 12.2162C125.318 12.2036 125.252 12.1964 125.187 12.1946C124.685 12.1946 124.25 12.5406 124.108 13.0379C124.097 13.0919 122.877 17.9676 121.929 21.6757L121.907 21.7514L121.886 21.6757C120.96 17.9676 119.707 13.0919 119.707 13.0379C119.655 12.8309 119.545 12.6432 119.388 12.4974C119.231 12.3516 119.036 12.2539 118.824 12.2162C118.643 12.1844 118.456 12.1978 118.282 12.2553C118.107 12.3127 117.949 12.4124 117.823 12.5453C117.696 12.6783 117.605 12.8403 117.557 13.0169C117.51 13.1934 117.507 13.3789 117.55 13.5568L120.829 26.5622C120.891 26.8005 121.03 27.0121 121.225 27.1644C121.42 27.3167 121.659 27.4014 121.907 27.4054C122.441 27.4054 122.866 27.0595 122.975 26.5622L125.154 17.9243L125.187 17.8487L125.208 17.9243C126.167 21.6757 127.387 26.573 127.387 26.573C127.452 26.8067 127.591 27.0136 127.783 27.1634C127.975 27.3132 128.211 27.398 128.455 27.4054C128.706 27.4132 128.952 27.3329 129.149 27.1787C129.346 27.0244 129.482 26.8062 129.533 26.5622L132.802 13.5568Z" fill="#333545"/>
</svg>
