<svg width="892" height="60" viewBox="0 0 892 60" fill="none" xmlns="http://www.w3.org/2000/svg">
<g clip-path="url(#clip0_1_2260)">
<g clip-path="url(#clip1_1_2260)">
<path d="M26.2996 35.8443C26.1584 35.5031 26.026 35.1443 25.8849 34.8381L25.2319 33.3768L25.2054 33.3506C23.2643 29.1506 21.1907 24.8806 18.9937 20.6806L18.9054 20.5056C18.6849 20.0943 18.4643 19.6393 18.2349 19.2193C17.9525 18.7206 17.679 18.1868 17.229 17.6793C16.7903 17.1483 16.2383 16.7205 15.6127 16.4267C14.9871 16.133 14.3035 15.9806 13.6113 15.9806C12.9191 15.9806 12.2356 16.133 11.61 16.4267C10.9844 16.7205 10.4323 17.1483 9.99368 17.6793C9.57898 18.1868 9.27015 18.7206 8.9878 19.2193C8.76721 19.6743 8.54663 20.1206 8.31721 20.5318L8.22898 20.7068C6.06721 24.9068 3.95839 29.1768 2.01721 33.3768L1.96427 33.4293C1.77016 33.8843 1.54074 34.3568 1.32016 34.8643C1.17898 35.1706 1.0378 35.5031 0.896626 35.8706C0.515478 36.8329 0.393766 37.8771 0.543484 38.9003C0.693202 39.9234 1.10918 40.8903 1.75043 41.7054C2.39168 42.5206 3.23606 43.1561 4.20035 43.5491C5.16465 43.9421 6.21558 44.0792 7.24957 43.9468C8.24086 43.8174 9.1954 43.49 10.0554 42.9843C11.2025 42.3456 12.3054 41.4181 13.5407 40.0793C14.776 41.4181 15.9054 42.3456 17.026 42.9931C18.1037 43.6203 19.324 43.9665 20.5731 43.9993C22.0196 44.0053 23.4194 43.4921 24.5141 42.5545C25.6088 41.6168 26.3245 40.3181 26.529 38.8981C26.7653 37.8776 26.6853 36.8102 26.2996 35.8356V35.8443ZM13.629 37.2968C12.1113 35.3718 11.1231 33.6043 10.7878 32.0906C10.6489 31.5297 10.6189 30.9476 10.6996 30.3756C10.7613 29.9293 10.929 29.5356 11.1584 29.2031C11.6878 28.4418 12.6143 27.9693 13.629 27.9693C14.1109 27.9547 14.5889 28.059 15.0201 28.2728C15.4513 28.4866 15.8222 28.8033 16.0996 29.1943C16.329 29.5443 16.4966 29.9293 16.5496 30.3756C16.6378 30.8831 16.6025 31.4693 16.4613 32.0906C16.126 33.5781 15.1378 35.3631 13.629 37.2968ZM24.8702 38.5918C24.7699 39.3128 24.4809 39.9951 24.0319 40.5708C23.583 41.1465 22.9898 41.5955 22.3113 41.8731C21.6407 42.1531 20.8996 42.2318 20.176 42.1531C19.4702 42.0656 18.7643 41.8381 18.0407 41.4181C16.8394 40.6818 15.7592 39.767 14.8378 38.7056C16.6907 36.4306 17.8113 34.3568 18.2349 32.5106C18.4378 31.6356 18.4643 30.8481 18.376 30.1218C18.2659 29.4335 18.007 28.7768 17.6172 28.1968C17.1722 27.5679 16.5781 27.0571 15.8873 26.7092C15.1965 26.3614 14.4301 26.1871 13.6554 26.2018C12.0231 26.2018 10.5672 26.9543 9.68486 28.1881C9.28766 28.7666 9.03096 29.4285 8.93486 30.1218C8.82016 30.8568 8.84663 31.6706 9.07604 32.5106C9.49957 34.3568 10.6466 36.4568 12.4731 38.7231C11.5673 39.8047 10.4846 40.7276 9.27015 41.4531C8.5378 41.8731 7.84074 42.0918 7.13486 42.1793C6.03711 42.3188 4.92823 42.0229 4.04924 41.3561C3.17025 40.6892 2.5922 39.7053 2.44074 38.6181C2.35251 37.9181 2.41427 37.2181 2.69663 36.4306C2.78486 36.1506 2.91721 35.8706 3.05839 35.5381C3.25251 35.0831 3.48192 34.6106 3.70251 34.1381L3.7378 34.0768C5.64368 29.9031 7.72604 25.6418 9.8878 21.4681L9.97604 21.2931C10.1966 20.8731 10.4172 20.4268 10.6466 20.0068C10.876 19.5606 11.1231 19.1318 11.4407 18.7818C11.7157 18.4564 12.0593 18.1946 12.4472 18.015C12.8352 17.8354 13.2582 17.7423 13.6863 17.7423C14.1145 17.7423 14.5375 17.8354 14.9254 18.015C15.3134 18.1946 15.657 18.4564 15.9319 18.7818C16.2407 19.1318 16.4966 19.5606 16.726 20.0068C16.9466 20.4268 17.1672 20.8818 17.3966 21.2931L17.4849 21.4681C19.6378 25.6418 21.7202 29.9031 23.6613 34.0768L23.6878 34.1031C23.9172 34.5581 24.1113 35.0656 24.3319 35.5031C24.4731 35.8443 24.6143 36.1156 24.7025 36.4043C24.8702 37.1918 24.9584 37.8918 24.8702 38.5918ZM37.1525 37.1043C36.4876 37.114 35.8291 36.9751 35.2257 36.6979C34.6224 36.4207 34.0897 36.0123 33.6672 35.5031C32.7179 34.4181 32.214 33.019 32.2554 31.5831C32.2409 30.1159 32.761 28.6928 33.7202 27.5756C34.1638 27.0599 34.7161 26.6469 35.338 26.3657C35.96 26.0845 36.6366 25.942 37.3202 25.9481C37.9633 25.9306 38.6004 26.0757 39.1715 26.3696C39.7426 26.6634 40.229 27.0965 40.5849 27.6281L40.6731 26.2543H43.2496V36.8243H40.6643L40.576 35.2843C40.2091 35.8519 39.702 36.3171 39.1028 36.6356C38.5036 36.9541 37.8323 37.1155 37.1525 37.1043ZM37.8231 34.5843C38.3349 34.5843 38.7849 34.4443 39.2084 34.1906C39.5966 33.9106 39.9143 33.5431 40.1613 33.0968C40.3819 32.6506 40.4966 32.1168 40.4966 31.5218C40.531 31.0051 40.4296 30.4883 40.2022 30.022C39.9749 29.5558 39.6294 29.156 39.1996 28.8618C38.7866 28.6067 38.3097 28.4714 37.8231 28.4714C37.3365 28.4714 36.8596 28.6067 36.4466 28.8618C36.0584 29.1418 35.7407 29.5093 35.4937 29.9556C35.2603 30.4477 35.1456 30.9869 35.1584 31.5306C35.124 32.0474 35.2254 32.5642 35.4528 33.0304C35.6801 33.4967 36.0256 33.8964 36.4554 34.1906C36.8702 34.4443 37.3202 34.5843 37.8231 34.5843ZM47.6613 23.4018C47.6613 23.7081 47.6084 23.9881 47.4672 24.2156C47.326 24.4343 47.1319 24.6356 46.876 24.7756C46.6202 24.9156 46.3466 24.9681 46.0643 24.9681C45.7819 24.9681 45.4996 24.9156 45.2437 24.7756C45.0017 24.642 44.7982 24.4492 44.6525 24.2156C44.5159 23.9663 44.4488 23.6854 44.4584 23.4018C44.4584 23.0868 44.5202 22.8068 44.6525 22.5881C44.7937 22.3256 44.9966 22.1681 45.2437 22.0281C45.4996 21.8881 45.7731 21.8268 46.0643 21.8268C46.3451 21.8204 46.6229 21.8864 46.8703 22.0183C47.1178 22.1502 47.3265 22.3435 47.476 22.5793C47.6044 22.8344 47.6681 23.1168 47.6613 23.4018ZM44.6613 36.7893V26.2368H47.4672V36.8068H44.6525L44.6613 36.7893ZM54.9672 29.0018V29.0368C54.8349 28.9756 54.6584 28.9493 54.526 28.9231C54.3496 28.8881 54.2084 28.8881 54.0407 28.8881C53.2554 28.8881 52.6643 29.1156 52.276 29.5881C51.8525 30.0693 51.6584 30.7431 51.6584 31.6093V36.7981H48.8437V26.2281H51.429L51.5172 27.8293C51.7996 27.2693 52.1349 26.8493 52.6113 26.5343C53.0853 26.2283 53.6432 26.0754 54.2084 26.0968C54.4113 26.0968 54.6054 26.1143 54.7731 26.1493C54.8613 26.1756 54.9143 26.1756 54.9672 26.2018V29.0018ZM56.0966 36.7893V21.8968H58.9025V27.5843C59.2996 27.0768 59.7496 26.6831 60.3143 26.3768C61.2083 25.9422 62.2239 25.8189 63.1972 26.0268C64.1705 26.2348 65.0448 26.7619 65.679 27.5231C66.6304 28.6104 67.1344 30.0129 67.0907 31.4518C67.1053 32.919 66.5851 34.3421 65.626 35.4593C65.1824 35.975 64.6301 36.388 64.0081 36.6692C63.3862 36.9504 62.7096 37.093 62.026 37.0868C61.3829 37.1043 60.7458 36.9593 60.1747 36.6654C59.6036 36.3715 59.1172 35.9384 58.7613 35.4068L58.6731 36.7806L56.0966 36.8068V36.7893ZM61.5231 34.5843C62.026 34.5843 62.476 34.4443 62.8996 34.1906C63.2878 33.9106 63.6054 33.5431 63.8525 33.0968C64.0819 32.6506 64.1878 32.1168 64.1878 31.5218C64.1878 30.9356 64.0819 30.4018 63.8525 29.9556C63.6208 29.5253 63.2952 29.1516 62.8996 28.8618C62.4866 28.6067 62.0097 28.4714 61.5231 28.4714C61.0365 28.4714 60.5596 28.6067 60.1466 28.8618C59.7496 29.1418 59.4407 29.5093 59.1849 29.9556C58.9515 30.4477 58.8367 30.9869 58.8496 31.5306C58.8152 32.0474 58.9166 32.5642 59.144 33.0304C59.3713 33.4967 59.7168 33.8964 60.1466 34.1906C60.5613 34.4443 61.0113 34.5843 61.5231 34.5843ZM68.1496 36.7981V26.2281H70.7349L70.8231 27.6018C71.148 27.0753 71.6088 26.6443 72.158 26.3536C72.7071 26.0628 73.3246 25.9228 73.9466 25.9481C74.6579 25.9359 75.357 26.1319 75.9565 26.5117C76.556 26.8914 77.0293 27.438 77.3172 28.0831C77.626 28.7481 77.7937 29.5706 77.7937 30.4893V36.8243H74.979V30.8568C74.979 30.1218 74.8113 29.5443 74.476 29.1156C74.1407 28.6956 73.6819 28.4681 73.0996 28.4681C72.676 28.4681 72.3055 28.5556 71.979 28.7481C71.6702 28.9493 71.4143 29.2031 71.2202 29.5618C71.0239 29.9245 70.9266 30.3317 70.9378 30.7431V36.7981H68.1496ZM79.1966 36.7981V21.8881H82.0113V27.5756C82.3926 27.0653 82.8885 26.6501 83.4598 26.363C84.0311 26.0759 84.6621 25.9249 85.3025 25.9218C85.9674 25.9122 86.6259 26.0511 87.2293 26.3283C87.8326 26.6055 88.3653 27.0139 88.7878 27.5231C89.7325 28.6103 90.2329 30.0086 90.1907 31.4431C90.2061 32.9104 89.6858 34.3338 88.726 35.4506C88.2824 35.9663 87.7301 36.3793 87.1081 36.6605C86.4862 36.9417 85.8096 37.0842 85.126 37.0781C84.4829 37.0955 83.8458 36.9505 83.2747 36.6566C82.7036 36.3627 82.2172 35.9297 81.8613 35.3981L81.7819 36.7718L79.1966 36.7981ZM84.6496 34.5843C85.1613 34.5843 85.6113 34.4443 86.026 34.1906C86.4231 33.9106 86.7319 33.5431 86.9878 33.0968C87.2084 32.6506 87.3231 32.1168 87.3231 31.5218C87.3575 31.0051 87.2561 30.4883 87.0287 30.022C86.8013 29.5558 86.4559 29.156 86.026 28.8618C85.613 28.6067 85.1362 28.4714 84.6496 28.4714C84.163 28.4714 83.6861 28.6067 83.2731 28.8618C82.8849 29.1418 82.5672 29.5093 82.3202 29.9556C82.0739 30.4433 81.9584 30.9858 81.9849 31.5306C81.9505 32.0474 82.0519 32.5642 82.2793 33.0304C82.5066 33.4967 82.8521 33.8964 83.2819 34.1906C83.6966 34.4443 84.1202 34.5843 84.6496 34.5843Z" fill="#FF385C"/>
</g>
<g clip-path="url(#clip2_1_2260)">
<path d="M163.597 21.9728V28.7425H157.428V21.9728H154.5V38.1328H157.428V31.5829H163.597V38.1328H166.525V21.9728H163.597Z" fill="#33475B"/>
<path d="M175.897 32.909C175.897 33.5567 175.642 34.1778 175.188 34.6357C174.733 35.0937 174.117 35.351 173.475 35.351C172.832 35.351 172.216 35.0937 171.762 34.6357C171.307 34.1778 171.052 33.5567 171.052 32.909V25.9874H168.274V32.909C168.274 34.2979 168.822 35.6299 169.796 36.612C170.77 37.5941 172.092 38.1458 173.47 38.1458C174.848 38.1458 176.169 37.5941 177.143 36.612C178.118 35.6299 178.665 34.2979 178.665 32.909V25.9874H175.897V32.909Z" fill="#33475B"/>
<path d="M196.479 26.7005C196.479 25.2817 197.41 24.832 198.43 24.832C199.252 24.832 200.338 25.4625 201.048 26.2276L202.868 24.0669C201.96 22.8289 200.117 21.9728 198.609 21.9728C195.596 21.9728 193.417 23.7516 193.417 26.7005C193.417 32.1715 200.051 30.4361 200.051 33.4977C200.051 34.4421 199.142 35.2765 198.1 35.2765C196.457 35.2765 195.925 34.4667 195.17 33.6105L193.151 35.7263C194.443 37.3244 196.035 38.1357 197.944 38.1357C200.806 38.1357 203.109 36.3352 203.109 33.5208C203.109 27.4467 196.474 29.334 196.474 26.7005" fill="#33475B"/>
<path d="M237.523 35.5513C235.881 35.5513 235.415 34.8354 235.415 33.7392V28.8871H237.966V26.4286H235.415V23.1847L232.599 24.4588V34.3423C232.599 36.8703 234.329 38.1444 236.702 38.1444C237.074 38.1512 237.446 38.1212 237.813 38.0547L238.5 35.505C238.19 35.5267 237.834 35.5484 237.523 35.5484" fill="#33475B"/>
<path d="M186.471 26.0685C185.095 26.0685 184.135 26.4705 183.206 27.3889V22.0697H180.424V31.9286C180.424 35.6193 183.072 38.1473 186.046 38.1473C189.346 38.1473 192.249 35.5745 192.249 32.1094C192.249 28.6876 189.577 26.0699 186.471 26.0699V26.0685ZM186.453 35.3257C185.829 35.3257 185.219 35.1391 184.7 34.7895C184.181 34.4399 183.776 33.943 183.537 33.3616C183.298 32.7803 183.236 32.1405 183.357 31.5233C183.479 30.9062 183.78 30.3392 184.221 29.8943C184.663 29.4493 185.225 29.1463 185.838 29.0235C186.45 28.9007 187.085 28.9638 187.661 29.2046C188.238 29.4454 188.731 29.8532 189.078 30.3764C189.425 30.8996 189.61 31.5148 189.61 32.1441C189.61 32.9879 189.277 33.7972 188.685 34.3938C188.093 34.9905 187.291 35.3257 186.453 35.3257Z" fill="#33475B"/>
<path d="M216.679 31.9618C216.679 28.4909 213.782 25.9238 210.476 25.9238C207.502 25.9238 204.855 28.4518 204.855 32.1426V42.0072H207.637V36.6808C208.564 37.5977 209.525 38.0012 210.9 38.0012C214.006 38.0012 216.678 35.385 216.678 31.9618H216.679ZM214.045 31.9271C214.045 32.5564 213.86 33.1715 213.513 33.6947C213.166 34.2179 212.673 34.6258 212.096 34.8666C211.519 35.1074 210.885 35.1704 210.272 35.0476C209.66 34.9249 209.098 34.6218 208.656 34.1769C208.215 33.7319 207.914 33.165 207.792 32.5478C207.671 31.9306 207.733 31.2909 207.972 30.7095C208.211 30.1281 208.615 29.6312 209.135 29.2816C209.654 28.932 210.264 28.7454 210.888 28.7454C211.725 28.7454 212.528 29.0806 213.12 29.6773C213.712 30.274 214.045 31.0832 214.045 31.9271Z" fill="#33475B"/>
<path d="M225.667 25.7879V22.9706C226.036 22.7967 226.349 22.5205 226.569 22.1744C226.789 21.8282 226.906 21.4263 226.908 21.0153V20.9503C226.908 20.3749 226.681 19.8231 226.278 19.4163C225.874 19.0095 225.327 18.7809 224.756 18.7809H224.691C224.121 18.7809 223.573 19.0095 223.17 19.4163C222.766 19.8231 222.539 20.3749 222.539 20.9503V21.0153C222.541 21.4263 222.659 21.8282 222.878 22.1744C223.098 22.5205 223.411 22.7967 223.78 22.9706V25.7879C222.719 25.9516 221.719 26.3951 220.882 27.0736L213.217 21.0558C213.271 20.8574 213.3 20.6528 213.303 20.447C213.304 19.9635 213.163 19.4907 212.897 19.0882C212.631 18.6858 212.253 18.3718 211.81 18.1861C211.367 18.0004 210.88 17.9512 210.409 18.0448C209.938 18.1383 209.506 18.3705 209.166 18.7118C208.827 19.0532 208.595 19.4884 208.501 19.9625C208.407 20.4365 208.454 20.9281 208.637 21.375C208.82 21.8219 209.13 22.204 209.529 22.4731C209.927 22.7422 210.396 22.8862 210.876 22.8868C211.295 22.8849 211.707 22.7722 212.069 22.5599L219.618 28.4793C218.94 29.5118 218.586 30.7264 218.602 31.9647C218.619 33.203 219.005 34.4075 219.711 35.4211L217.415 37.7351C217.23 37.6753 217.036 37.6436 216.841 37.6411C216.448 37.6414 216.063 37.7593 215.736 37.98C215.408 38.2007 215.153 38.5142 215.003 38.8809C214.852 39.2477 214.813 39.6511 214.89 40.0404C214.967 40.4296 215.156 40.7872 215.435 41.0678C215.713 41.3485 216.068 41.5396 216.454 41.6171C216.84 41.6946 217.241 41.655 217.604 41.5033C217.968 41.3515 218.279 41.0944 218.498 40.7646C218.717 40.4347 218.834 40.0468 218.834 39.6499C218.832 39.4534 218.801 39.2585 218.741 39.0714L221.013 36.782C221.753 37.3565 222.614 37.7525 223.53 37.9397C224.446 38.1268 225.392 38.1003 226.297 37.8619C227.201 37.6236 228.039 37.1799 228.746 36.5647C229.454 35.9495 230.013 35.1793 230.38 34.3129C230.746 33.4465 230.912 32.507 230.863 31.5664C230.813 30.6257 230.552 29.7088 230.097 28.886C229.642 28.0631 229.006 27.3561 228.238 26.8191C227.471 26.2821 226.591 25.9294 225.667 25.7879ZM224.726 35.0523C224.105 35.0518 223.497 34.8656 222.981 34.5173C222.465 34.169 222.062 33.6742 221.825 33.0955C221.588 32.5168 221.526 31.8801 221.647 31.266C221.769 30.6518 222.068 30.0878 222.507 29.6451C222.947 29.2023 223.506 28.9009 224.116 28.7787C224.725 28.6566 225.357 28.7193 225.931 28.9589C226.505 29.1984 226.996 29.6042 227.341 30.1248C227.686 30.6454 227.871 31.2574 227.871 31.8837C227.871 32.7237 227.54 33.5293 226.951 34.1232C226.361 34.7172 225.562 35.0509 224.729 35.0509" fill="#FF7A59"/>
</g>
<g clip-path="url(#clip3_1_2260)">
<path d="M338.246 30.3591C338.246 34.2456 335.161 37.1095 331.375 37.1095C327.589 37.1095 324.504 34.2456 324.504 30.3591C324.504 26.4452 327.589 23.6086 331.375 23.6086C335.161 23.6086 338.246 26.4452 338.246 30.3591ZM335.238 30.3591C335.238 27.9304 333.45 26.2686 331.375 26.2686C329.3 26.2686 327.512 27.9304 327.512 30.3591C327.512 32.7634 329.3 34.4495 331.375 34.4495C333.45 34.4495 335.238 32.7604 335.238 30.3591Z" fill="#EA4335"/>
<path d="M353.07 30.3591C353.07 34.2456 349.985 37.1095 346.198 37.1095C342.412 37.1095 339.327 34.2456 339.327 30.3591C339.327 26.4482 342.412 23.6086 346.198 23.6086C349.985 23.6086 353.07 26.4452 353.07 30.3591ZM350.062 30.3591C350.062 27.9304 348.274 26.2686 346.198 26.2686C344.123 26.2686 342.335 27.9304 342.335 30.3591C342.335 32.7634 344.123 34.4495 346.198 34.4495C348.274 34.4495 350.062 32.7604 350.062 30.3591Z" fill="#FBBC05"/>
<path d="M367.276 24.0165V36.1356C367.276 41.1208 364.292 43.1569 360.766 43.1569C357.446 43.1569 355.448 40.9686 354.694 39.1791L357.313 38.1047C357.779 39.2034 358.922 40.4999 360.763 40.4999C363.02 40.4999 364.419 39.1273 364.419 36.5434V35.5726H364.314C363.641 36.3912 362.344 37.1065 360.707 37.1065C357.282 37.1065 354.144 34.1665 354.144 30.3834C354.144 26.573 357.282 23.6086 360.707 23.6086C362.341 23.6086 363.638 24.3239 364.314 25.1182H364.419V24.0195H367.276V24.0165ZM364.632 30.3834C364.632 28.0065 363.023 26.2686 360.976 26.2686C358.9 26.2686 357.162 28.0065 357.162 30.3834C357.162 32.736 358.9 34.4495 360.976 34.4495C363.023 34.4495 364.632 32.736 364.632 30.3834Z" fill="#4285F4"/>
<path d="M371.985 16.9131V36.6957H369.052V16.9131H371.985Z" fill="#34A853"/>
<path d="M383.418 32.5809L385.753 34.1148C384.999 35.2135 383.183 37.1066 380.046 37.1066C376.155 37.1066 373.248 34.1422 373.248 30.3561C373.248 26.3418 376.179 23.6057 379.709 23.6057C383.264 23.6057 385.002 26.3935 385.571 27.9001L385.882 28.667L376.726 32.4044C377.427 33.7588 378.517 34.4496 380.046 34.4496C381.577 34.4496 382.64 33.707 383.418 32.5809ZM376.232 30.1522L382.353 27.6475C382.016 26.8044 381.003 26.217 379.811 26.217C378.282 26.217 376.155 27.547 376.232 30.1522Z" fill="#EA4335"/>
<path d="M313.398 28.6031V25.7392H323.191C323.287 26.2383 323.336 26.8287 323.336 27.4678C323.336 29.6165 322.74 32.2735 320.82 34.1665C318.951 36.0839 316.564 37.1065 313.402 37.1065C307.54 37.1065 302.611 32.4013 302.611 26.6248C302.611 20.8483 307.54 16.1431 313.402 16.1431C316.644 16.1431 318.954 17.397 320.69 19.0313L318.639 21.0522C317.395 19.9018 315.708 19.007 313.398 19.007C309.118 19.007 305.771 22.4065 305.771 26.6248C305.771 30.8431 309.118 34.2426 313.398 34.2426C316.175 34.2426 317.756 33.1439 318.769 32.1457C319.59 31.3361 320.131 30.1796 320.344 28.6L313.398 28.6031Z" fill="#4285F4"/>
</g>
<g clip-path="url(#clip4_1_2260)">
<path d="M493.564 31.9752L492.836 34.031H492.776C492.655 33.5674 492.432 32.862 492.069 32.0155L488.171 22.2403H484.353V37.8201H486.878V28.2062C486.878 27.6015 486.878 26.9163 486.858 26.0698C486.837 25.6465 486.797 25.324 486.777 25.0822H486.837C486.959 25.6868 487.1 26.1302 487.201 26.4124L491.887 37.7798H493.665L498.31 26.3116C498.411 26.0496 498.512 25.5256 498.613 25.0822H498.674C498.613 26.231 498.573 27.2589 498.553 27.8837V37.7597H501.239V22.2H497.563L493.564 31.9752ZM503.784 26.5938H506.41V37.7597H503.784V26.5938ZM505.117 21.8775C504.673 21.8775 504.309 22.0387 504.006 22.3209C503.703 22.6031 503.542 22.9659 503.542 23.4093C503.542 23.8325 503.703 24.1953 504.006 24.4775C504.309 24.7597 504.673 24.9008 505.117 24.9008C505.562 24.9008 505.945 24.7395 506.228 24.4775C506.531 24.1953 506.693 23.8325 506.693 23.4093C506.693 22.986 506.531 22.6232 506.228 22.3209C505.966 22.0387 505.582 21.8775 505.117 21.8775ZM515.722 26.493C515.237 26.3922 514.732 26.3318 514.247 26.3318C513.055 26.3318 511.965 26.5938 511.056 27.1178C510.147 27.6418 509.42 28.3674 508.955 29.2744C508.47 30.2015 508.228 31.2698 508.228 32.4992C508.228 33.5674 508.47 34.5147 508.935 35.3814C509.399 36.2279 510.046 36.9132 510.914 37.3767C511.742 37.8403 512.712 38.0822 513.803 38.0822C515.055 38.0822 516.125 37.8201 516.974 37.3364L516.994 37.3163V34.8977L516.893 34.9783C516.509 35.2605 516.065 35.5023 515.621 35.6434C515.156 35.8046 514.732 35.8853 514.368 35.8853C513.318 35.8853 512.49 35.5829 511.904 34.9178C511.298 34.2729 510.995 33.386 510.995 32.2775C510.995 31.1287 511.298 30.2217 511.924 29.5566C512.55 28.8915 513.378 28.5488 514.388 28.5488C515.237 28.5488 516.105 28.831 516.893 29.3953L516.994 29.476V26.9163L516.974 26.8961C516.63 26.755 516.247 26.5938 515.722 26.493ZM524.387 26.4124C523.74 26.4124 523.134 26.6139 522.609 27.0372C522.165 27.4 521.862 27.924 521.599 28.5488H521.579V26.5938H518.953V37.7597H521.579V32.0558C521.579 31.0884 521.781 30.2822 522.225 29.6977C522.67 29.093 523.235 28.7907 523.922 28.7907C524.165 28.7907 524.407 28.8511 524.71 28.8915C524.993 28.9721 525.195 29.0527 525.336 29.1535L525.437 29.2341V26.6139L525.376 26.5938C525.195 26.4729 524.831 26.4124 524.387 26.4124ZM531.537 26.3519C529.699 26.3519 528.224 26.8961 527.194 27.9643C526.144 29.0325 525.639 30.5039 525.639 32.3581C525.639 34.0915 526.164 35.5023 527.174 36.5302C528.184 37.538 529.558 38.062 531.274 38.062C533.072 38.062 534.506 37.5178 535.536 36.4294C536.587 35.3411 537.092 33.8899 537.092 32.0961C537.092 30.3225 536.607 28.9116 535.617 27.8837C534.668 26.8558 533.274 26.3519 531.537 26.3519ZM533.638 34.938C533.153 35.5628 532.385 35.8651 531.436 35.8651C530.487 35.8651 529.719 35.5628 529.174 34.8977C528.628 34.2729 528.366 33.3659 528.366 32.217C528.366 31.0279 528.649 30.1209 529.174 29.476C529.719 28.831 530.467 28.5085 531.416 28.5085C532.345 28.5085 533.072 28.8108 533.597 29.4356C534.122 30.0604 534.405 30.9674 534.405 32.1566C534.365 33.3659 534.143 34.3132 533.638 34.938ZM542.949 31.2294C542.121 30.8868 541.596 30.6248 541.354 30.4031C541.152 30.2015 541.051 29.9194 541.051 29.5566C541.051 29.2542 541.172 28.9519 541.475 28.7504C541.778 28.5488 542.121 28.448 542.626 28.448C543.071 28.448 543.535 28.5287 543.979 28.6496C544.424 28.7705 544.828 28.9519 545.151 29.1938L545.252 29.2744V26.8155L545.191 26.7953C544.888 26.6744 544.484 26.5535 544 26.4527C543.515 26.3721 543.071 26.3318 542.707 26.3318C541.455 26.3318 540.424 26.6341 539.617 27.2992C538.809 27.924 538.425 28.7705 538.425 29.7581C538.425 30.2822 538.506 30.7457 538.687 31.1287C538.869 31.5116 539.132 31.8744 539.495 32.1767C539.859 32.4589 540.384 32.7814 541.111 33.0837C541.717 33.3457 542.182 33.5473 542.465 33.7085C542.747 33.8698 542.929 34.0511 543.071 34.1922C543.171 34.3535 543.232 34.555 543.232 34.817C543.232 35.5628 542.667 35.9256 541.515 35.9256C541.071 35.9256 540.606 35.8449 540.061 35.6636C539.516 35.4822 539.011 35.2201 538.586 34.9178L538.485 34.8372V37.3969L538.546 37.417C538.93 37.5984 539.394 37.7194 539.96 37.8605C540.525 37.9612 541.03 38.0418 541.475 38.0418C542.828 38.0418 543.939 37.7395 544.727 37.0744C545.535 36.4294 545.959 35.6031 545.959 34.5349C545.959 33.7891 545.757 33.124 545.313 32.6201C544.727 32.1364 544 31.6325 542.949 31.2294ZM552.887 26.3519C551.049 26.3519 549.574 26.8961 548.544 27.9643C547.514 29.0325 546.989 30.5039 546.989 32.3581C546.989 34.0915 547.514 35.5023 548.524 36.5302C549.534 37.538 550.908 38.062 552.624 38.062C554.422 38.062 555.856 37.5178 556.886 36.4294C557.937 35.3411 558.442 33.8899 558.442 32.0961C558.442 30.3225 557.957 28.9116 556.967 27.8837C556.018 26.8558 554.624 26.3519 552.887 26.3519ZM554.968 34.938C554.483 35.5628 553.715 35.8651 552.766 35.8651C551.796 35.8651 551.049 35.5628 550.504 34.8977C549.958 34.2729 549.696 33.3659 549.696 32.217C549.696 31.0279 549.978 30.1209 550.504 29.476C551.049 28.831 551.796 28.5085 552.746 28.5085C553.655 28.5085 554.402 28.8108 554.927 29.4356C555.452 30.0604 555.735 30.9674 555.735 32.1566C555.735 33.3659 555.472 34.3132 554.968 34.938ZM572.48 28.7504V26.5938H569.834V23.2884L569.753 23.3085L567.248 24.0542L567.188 24.0744V26.5938H563.229V25.1829C563.229 24.538 563.39 24.0341 563.673 23.7116C563.956 23.3891 564.38 23.2279 564.905 23.2279C565.269 23.2279 565.653 23.3085 566.077 23.4899L566.178 23.5504V21.2729L566.117 21.2527C565.754 21.1318 565.269 21.0511 564.643 21.0511C563.855 21.0511 563.168 21.2325 562.542 21.5349C561.916 21.8775 561.451 22.3411 561.108 22.9659C560.765 23.5705 560.583 24.2558 560.583 25.0418V26.5938H558.745V28.7302H560.583V37.7597H563.229V28.7504H567.188V34.4946C567.188 36.8527 568.299 38.0418 570.521 38.0418C570.884 38.0418 571.268 37.9814 571.631 37.9209C572.015 37.8403 572.298 37.7395 572.46 37.6589L572.48 37.6387V35.4822L572.379 35.5628C572.217 35.6636 572.076 35.7442 571.833 35.8046C571.631 35.8651 571.45 35.8853 571.308 35.8853C570.783 35.8853 570.42 35.7643 570.157 35.462C569.915 35.1798 569.793 34.7163 569.793 34.031V28.7504H572.48Z" fill="#737373"/>
<path d="M450.5 17H462.882V29.355H450.5V17Z" fill="#F25022"/>
<path d="M464.174 17H476.556V29.355H464.174V17Z" fill="#7FBA00"/>
<path d="M450.5 30.645H462.882V43.0001H450.5V30.645Z" fill="#00A4EF"/>
<path d="M464.174 30.645H476.556V43.0001H464.174V30.645Z" fill="#FFB900"/>
</g>
<g clip-path="url(#clip5_1_2260)">
<path d="M676.002 26.2479V27.7214H676.047C676.577 26.9325 677.457 26.0034 679.408 26.0034C680.926 26.0034 682.091 26.776 682.59 27.943H682.635C683.061 27.353 683.55 26.9064 684.097 26.5902C684.745 26.2153 685.466 26.0001 686.374 26.0001C688.429 26.0001 690.248 27.3367 690.248 30.7074V37.1001H687.115V31.1541C687.115 29.4459 686.499 28.4581 685.216 28.4581C684.277 28.4581 683.595 29.0514 683.335 29.7816C683.245 30.0326 683.203 30.3749 683.203 30.6618V37.1034H680.07V30.9128C680.07 29.4622 679.478 28.4549 678.213 28.4549C677.201 28.4549 676.567 29.2046 676.307 29.8468C676.196 30.1207 676.161 30.4369 676.161 30.7335V37.1001H673.025V26.2479H676.002ZM706.418 26.2479V28.2951H706.504C707.079 26.7304 708.445 26.0034 709.644 26.0034C709.945 26.0034 710.112 26.0262 710.354 26.0719V28.9145C710.067 28.8754 709.8 28.8363 709.426 28.8363C708.067 28.8363 707.121 29.5795 706.882 30.7433C706.83 30.9845 706.813 31.2453 706.813 31.5452V37.1034H703.597V26.2479H706.418ZM714.721 22.6522V26.0686H717.438V28.833H714.721V32.9111C714.721 34.2314 715.078 34.8703 716.138 34.8703C716.637 34.8703 717.004 34.8117 717.323 34.7367L717.365 37.0284C716.938 37.1784 716.031 37.3414 715.109 37.3414C714.024 37.3414 713.12 36.986 712.569 36.4351C711.938 35.8059 711.647 34.7758 711.647 33.3089V22.6522H714.721ZM670.842 37.1001H667.723V22.6522H670.842V37.1001ZM662.525 33.2241C662.525 33.4229 662.508 33.6316 662.449 33.8109C662.206 34.5639 661.378 35.1996 660.345 35.1996C659.482 35.1996 658.796 34.74 658.796 33.7652C658.796 32.2755 660.543 31.8615 662.528 31.8712V33.2241H662.525ZM665.64 30.6259C665.64 28.1647 664.525 26.0034 660.751 26.0034C658.814 26.0034 657.275 26.5152 656.436 26.9716L657.05 28.9471C657.816 28.4907 659.039 28.1158 660.196 28.1158C662.113 28.1126 662.425 29.1362 662.425 29.7914V29.9479C658.249 29.9414 655.612 31.3007 655.612 34.0717C655.612 35.7636 656.953 37.3479 659.288 37.3479C660.726 37.3479 661.926 36.81 662.646 35.9461H662.716C662.716 35.9461 663.194 37.8206 665.821 37.1034C665.682 36.321 665.637 35.4897 665.637 34.4889V30.6259H665.64ZM639.945 22.6522C640.267 24.1811 641.182 28.6211 641.182 28.6211C641.566 30.4467 641.92 32.3602 642.187 33.8728H642.235C642.495 32.2657 642.904 30.7433 643.341 28.8591L644.883 22.6522H648.296L649.738 29.0188C650.115 30.7889 650.417 32.1548 650.656 33.8011H650.701C650.961 32.1385 651.301 30.7172 651.671 28.8982L653.058 22.6522H656.332L652.274 37.1001C649.689 37.6315 648.698 36.6535 648.345 35.1018C647.991 33.5468 647.298 30.5901 647.298 30.5901C646.941 28.9699 646.664 27.829 646.47 26.1664H646.421C646.144 27.8127 645.853 28.9667 645.423 30.5868L643.722 37.1034C641.081 37.5989 640.166 36.8654 639.66 34.8736C639.224 33.1687 636.5 22.6555 636.5 22.6555H639.945V22.6522ZM698.399 33.2241C698.399 33.4229 698.381 33.6316 698.322 33.8109C698.08 34.5639 697.252 35.1996 696.219 35.1996C695.356 35.1996 694.67 34.74 694.67 33.7652C694.67 32.2755 696.416 31.8615 698.402 31.8712V33.2241H698.399ZM701.514 30.6259C701.514 28.1647 700.398 26.0034 696.624 26.0034C694.687 26.0034 693.149 26.5152 692.31 26.9716L692.923 28.9471C693.689 28.4907 694.913 28.1158 696.07 28.1158C697.983 28.1126 698.298 29.1362 698.298 29.7914V29.9479C694.126 29.9414 691.489 31.3007 691.489 34.0717C691.489 35.7636 692.833 37.3479 695.165 37.3479C696.6 37.3479 697.803 36.81 698.52 35.9461H698.593C698.593 35.9461 699.071 37.8206 701.698 37.1034C701.559 36.321 701.514 35.4897 701.514 34.4889V30.6259Z" fill="#041E42"/>
<path d="M730.08 32.1241C730.388 32.6517 730.367 33.2406 730.039 33.5096L724.367 37.4276C723.776 37.7646 722.892 37.3561 722.391 36.5017C721.887 35.6439 721.977 34.6874 722.567 34.3504L728.847 31.4705C729.241 31.3208 729.773 31.5965 730.08 32.1241ZM737.545 32.1241C737.856 31.5965 738.384 31.3242 738.778 31.4671L745.061 34.3469C745.652 34.6839 745.738 35.6405 745.237 36.4983C744.733 37.3527 743.845 37.7578 743.258 37.4242L737.586 33.5062C737.262 33.2406 737.237 32.6483 737.545 32.1241ZM733.811 34.2482C734.429 34.2482 734.937 34.5614 735.006 34.9733L735.617 41.7745C735.617 42.4485 734.819 43 733.814 43C732.813 43 732.011 42.4485 732.011 41.7745L732.619 34.9733C732.688 34.5614 733.196 34.2482 733.811 34.2482ZM737.586 26.4938L743.258 22.5724C743.845 22.2354 744.733 22.6405 745.237 23.4983C745.738 24.3561 745.652 25.3126 745.061 25.6496L738.778 28.5329C738.384 28.6758 737.852 28.4035 737.545 27.8759C737.237 27.3483 737.262 26.7594 737.586 26.4938ZM728.847 28.5329L722.567 25.6496C721.98 25.3126 721.89 24.3561 722.391 23.4983C722.892 22.6405 723.78 22.2354 724.367 22.5724L730.039 26.4938C730.367 26.756 730.388 27.3483 730.08 27.8759C729.773 28.4035 729.241 28.6758 728.847 28.5329ZM732.619 25.0267L732.011 18.2255C732.011 17.5515 732.809 17 733.814 17C734.819 17 735.617 17.5515 735.617 18.2255L735.006 25.0267C734.937 25.4352 734.429 25.7518 733.811 25.7518C733.196 25.7518 732.688 25.4352 732.619 25.0267ZM746.771 37.4004V37.2302H746.927C746.978 37.2302 747.013 37.2642 747.013 37.3153C747.013 37.3629 746.978 37.4004 746.927 37.4004H746.771ZM746.643 37.7101C746.643 37.7272 746.657 37.7442 746.678 37.7442H746.744C746.761 37.7442 746.778 37.7272 746.778 37.7101V37.5161H746.885L746.972 37.7203C746.978 37.734 746.989 37.7442 747.003 37.7442H747.082C747.106 37.7442 747.124 37.7203 747.113 37.6965C747.082 37.6352 747.051 37.5706 747.02 37.5059C747.072 37.4889 747.151 37.4378 747.151 37.3153C747.151 37.1859 747.044 37.111 746.937 37.111H746.678C746.661 37.111 746.643 37.128 746.643 37.1451V37.7101ZM746.364 37.4276C746.364 37.1519 746.592 36.9272 746.871 36.9272C747.151 36.9272 747.379 37.1485 747.379 37.4276C747.379 37.7033 747.155 37.928 746.871 37.928C746.588 37.928 746.364 37.7033 746.364 37.4276ZM746.243 37.4276C746.243 37.768 746.522 38.0471 746.871 38.0471C747.217 38.0471 747.5 37.768 747.5 37.4276C747.5 37.0872 747.217 36.8081 746.871 36.8081C746.522 36.8081 746.243 37.0872 746.243 37.4276Z" fill="#FFC124"/>
</g>
<g clip-path="url(#clip6_1_2260)">
<path d="M870.991 41.2817L877.663 33.8925L870.991 26.5022H878.03L881.335 30.0919L884.517 26.5022H891.31L884.67 33.862L891.402 41.2817H884.333L881.059 37.6625L877.815 41.2817H870.991Z" fill="#FF6600"/>
<path d="M870.991 23.1891H863.435V26.5022H870.991V31.4952H863.435V36.0782H870.991V41.2817H857.881V18H870.991V23.1891Z" fill="#FF6600"/>
<path d="M852.351 18V27.528H852.29C851.066 26.1408 849.536 25.6587 847.761 25.6587C844.125 25.6587 841.386 28.0951 840.425 31.3162C839.329 27.767 836.501 25.5922 832.308 25.5922C828.903 25.5922 826.215 27.0987 824.812 29.5536V26.5025H817.774V23.1898H825.454V18H811.5V41.2821H817.774V31.4952H824.027C823.841 32.2142 823.741 32.9839 823.741 33.7961C823.741 38.6527 827.505 42.0603 832.308 42.0603C836.348 42.0603 839.01 40.1911 840.418 36.7831H835.041C834.314 37.8069 833.762 38.111 832.308 38.111C830.622 38.111 829.169 36.661 829.169 34.9423H840.116C840.591 38.7998 843.639 42.1265 847.823 42.1265C849.627 42.1265 851.279 41.2515 852.29 39.7742H852.351V41.2814H857.881V18H852.351ZM829.343 31.5648C829.692 30.0861 830.856 29.1195 832.308 29.1195C833.907 29.1195 835.012 30.0562 835.302 31.5648C835.425 31.5648 829.343 31.5648 829.343 31.5648ZM848.995 37.7369C846.956 37.7369 845.689 35.8646 845.689 33.9096C845.689 31.8199 846.791 29.8104 848.995 29.8104C851.279 29.8104 852.19 31.8199 852.19 33.9096C852.189 35.8913 851.225 37.7369 848.995 37.7369Z" fill="#652C8F"/>
</g>
</g>
<defs>
<clipPath id="clip0_1_2260">
<rect width="891" height="60" fill="white" transform="translate(0.5)"/>
</clipPath>
<clipPath id="clip1_1_2260">
<rect width="90" height="28" fill="white" transform="translate(0.5 16)"/>
</clipPath>
<clipPath id="clip2_1_2260">
<rect width="84" height="24" fill="white" transform="translate(154.5 18)"/>
</clipPath>
<clipPath id="clip3_1_2260">
<rect width="84" height="28" fill="white" transform="translate(302.5 16)"/>
</clipPath>
<clipPath id="clip4_1_2260">
<rect width="122" height="26" fill="white" transform="translate(450.5 17)"/>
</clipPath>
<clipPath id="clip5_1_2260">
<rect width="111" height="26" fill="white" transform="translate(636.5 17)"/>
</clipPath>
<clipPath id="clip6_1_2260">
<rect width="80" height="24" fill="white" transform="translate(811.5 18)"/>
</clipPath>
</defs>
</svg>
