<svg width="48" height="48" viewBox="0 0 48 48" fill="none" xmlns="http://www.w3.org/2000/svg">
<path d="M14.6666 9.33331H10.6666C10.313 9.33331 9.97388 9.47379 9.72384 9.72384C9.47379 9.97388 9.33331 10.313 9.33331 10.6666V37.3333C9.33331 37.6869 9.47379 38.0261 9.72384 38.2761C9.97388 38.5262 10.313 38.6666 10.6666 38.6666H14.6666V9.33331Z" fill="#D6B1FF"/>
<path d="M17.3333 38.6666H30.6666V9.33331H17.3333V38.6666ZM24 33.3333C23.6464 33.3333 23.3072 33.1928 23.0572 32.9428C22.8071 32.6927 22.6666 32.3536 22.6666 32C22.6666 31.6464 22.8071 31.3072 23.0572 31.0572C23.3072 30.8071 23.6464 30.6666 24 30.6666C24.3536 30.6666 24.6927 30.8071 24.9428 31.0572C25.1928 31.3072 25.3333 31.6464 25.3333 32C25.3333 32.3536 25.1928 32.6927 24.9428 32.9428C24.6927 33.1928 24.3536 33.3333 24 33.3333ZM24 14.6666C24.3536 14.6666 24.6927 14.8071 24.9428 15.0572C25.1928 15.3072 25.3333 15.6464 25.3333 16C25.3333 16.3536 25.1928 16.6927 24.9428 16.9428C24.6927 17.1928 24.3536 17.3333 24 17.3333C23.6464 17.3333 23.3072 17.1928 23.0572 16.9428C22.8071 16.6927 22.6666 16.3536 22.6666 16C22.6666 15.6464 22.8071 15.3072 23.0572 15.0572C23.3072 14.8071 23.6464 14.6666 24 14.6666ZM24 22.6666C24.3536 22.6666 24.6927 22.8071 24.9428 23.0572C25.1928 23.3072 25.3333 23.6464 25.3333 24C25.3333 24.3536 25.1928 24.6927 24.9428 24.9428C24.6927 25.1928 24.3536 25.3333 24 25.3333C23.6464 25.3333 23.3072 25.1928 23.0572 24.9428C22.8071 24.6927 22.6666 24.3536 22.6666 24C22.6666 23.6464 22.8071 23.3072 23.0572 23.0572C23.3072 22.8071 23.6464 22.6666 24 22.6666Z" fill="#8C30F5"/>
<path d="M37.3333 9.33331H33.3333V38.6666H37.3333C37.6869 38.6666 38.0261 38.5262 38.2761 38.2761C38.5262 38.0261 38.6666 37.6869 38.6666 37.3333V10.6666C38.6666 10.313 38.5262 9.97388 38.2761 9.72384C38.0261 9.47379 37.6869 9.33331 37.3333 9.33331Z" fill="#2EC5CE"/>
</svg>
