<svg width="48" height="48" viewBox="0 0 48 48" fill="none" xmlns="http://www.w3.org/2000/svg">
<path d="M20 21.3333H10.6667C10.3131 21.3333 9.97395 21.1928 9.7239 20.9428C9.47385 20.6927 9.33337 20.3536 9.33337 20V10.6666C9.33337 10.313 9.47385 9.97388 9.7239 9.72384C9.97395 9.47379 10.3131 9.33331 10.6667 9.33331H20C20.3537 9.33331 20.6928 9.47379 20.9429 9.72384C21.1929 9.97388 21.3334 10.313 21.3334 10.6666V20C21.3334 20.3536 21.1929 20.6927 20.9429 20.9428C20.6928 21.1928 20.3537 21.3333 20 21.3333Z" fill="#8C30F5"/>
<path d="M20 38.6666H10.6667C10.3131 38.6666 9.97395 38.5262 9.7239 38.2761C9.47385 38.0261 9.33337 37.6869 9.33337 37.3333V28C9.33337 27.6463 9.47385 27.3072 9.7239 27.0571C9.97395 26.8071 10.3131 26.6666 10.6667 26.6666H20C20.3537 26.6666 20.6928 26.8071 20.9429 27.0571C21.1929 27.3072 21.3334 27.6463 21.3334 28V37.3333C21.3334 37.6869 21.1929 38.0261 20.9429 38.2761C20.6928 38.5262 20.3537 38.6666 20 38.6666Z" fill="#8C30F5"/>
<path d="M25.3334 10.6666H38.6667V13.3333H25.3334V10.6666Z" fill="#2EC5CE"/>
<path d="M38.6667 28H25.3334V30.6667H38.6667V28Z" fill="#2EC5CE"/>
<path d="M38.6667 34.6666H25.3334V37.3333H38.6667V34.6666Z" fill="#D6B1FF"/>
<path d="M38.6667 17.3333H25.3334V20H38.6667V17.3333Z" fill="#D6B1FF"/>
</svg>
